<?xml version="1.0" encoding="utf-8"?>
<!-- Generator: Adobe Illustrator 26.0.1, SVG Export Plug-In . SVG Version: 6.00 Build 0)  -->
<svg version="1.1" id="Ñëîé_1" xmlns="http://www.w3.org/2000/svg" x="0px" y="0px"
     viewBox="0 0 566.93 566.93" style="enable-background:new 0 0 566.93 566.93;" xml:space="preserve">
<style type="text/css">
	.st0{fill:url(#SVGID_1_);}
	.st1{fill:url(#SVGID_00000090997596669552294440000010079047522174202514_);}
	.st2{fill:url(#SVGID_00000102545084988653636900000011426929199430505358_);}
	.st3{fill:url(#SVGID_00000031906834185144504130000005072654766254385334_);}
	.st4{fill:url(#SVGID_00000033345145383007296700000003986087883485794983_);}
	.st5{fill:url(#SVGID_00000170960141678995840600000010252507569456897943_);}
	.st6{filter:url(#Adobe_OpacityMaskFilter);}
	.st7{fill:url(#SVGID_00000176013542668174814260000016028544039306574499_);}
	.st8{mask:url(#SVGID_00000137126599940060498570000012869576388914776980_);}
	.st9{fill:url(#SVGID_00000036216699455167860790000013037679468466095534_);}
	.st10{fill:url(#SVGID_00000152265371701613353550000016702219333529675147_);}
	.st11{fill:url(#SVGID_00000067234864649372771920000016794797327365705606_);}
	.st12{fill:url(#SVGID_00000013871717513901034940000010853423971765892756_);}
	.st13{fill:url(#SVGID_00000057150284856867182100000009997193821678078106_);}
	.st14{fill:url(#SVGID_00000113339529765764905390000008194655016404060820_);}
	.st15{fill:url(#SVGID_00000059286067207530416400000002938135781432454788_);}
	.st16{fill:url(#SVGID_00000035509909950605071520000002289353459301595309_);}
	.st17{fill:url(#SVGID_00000013162391419479907280000014275735217979557280_);}
	.st18{filter:url(#Adobe_OpacityMaskFilter_00000078758079662578810610000013311841522262571147_);}
	.st19{fill:url(#SVGID_00000156568775704191815230000005579603779763620535_);}
	.st20{mask:url(#SVGID_00000014631586017802999040000012025607514908098189_);}
	.st21{fill:url(#SVGID_00000176748787507519890800000018315285246564428428_);}
	.st22{fill:url(#SVGID_00000096026137727126569870000008374515437769165245_);}
	.st23{fill:url(#SVGID_00000051361441946389035790000007207877643960126611_);}
	.st24{fill:url(#SVGID_00000096054289819117396570000003145683172094782112_);}
	.st25{fill:url(#SVGID_00000160904602604148554560000008305855644258000527_);}
	.st26{fill:url(#SVGID_00000044869993030285094580000004645417221071201727_);}
	.st27{fill:url(#SVGID_00000108286747542292882250000015232640860641598082_);}
	.st28{fill:url(#SVGID_00000156583751679195742090000011853328556160679089_);}
	.st29{filter:url(#Adobe_OpacityMaskFilter_00000167381955329501261210000002694783411466306181_);}
	.st30{fill:url(#SVGID_00000072997955266760576760000017502038033081865918_);}
	.st31{mask:url(#SVGID_00000098924662110028860820000000853415390057365636_);}
	.st32{fill:url(#SVGID_00000007396549776611054130000010092877785267796353_);}
	.st33{fill:url(#SVGID_00000172435311193965520570000012149038020212470973_);}
	.st34{fill:url(#SVGID_00000127739888655943106540000016543818748907827354_);}
	.st35{fill:url(#SVGID_00000008846455567858965900000004028132211824854447_);}
	.st36{fill:url(#SVGID_00000163060674009785637400000005340966382379729579_);}
	.st37{fill:url(#SVGID_00000076585081408673172780000017385816329753343423_);}
	.st38{fill:url(#SVGID_00000051377514967713788510000003732064336336727963_);}
	.st39{fill:url(#SVGID_00000067916834037888626070000017480833069448970924_);}
	.st40{fill:url(#SVGID_00000078747326844771664150000005325571952346537151_);}
	.st41{fill:url(#SVGID_00000168811599601513836850000008644597053314865563_);}
	.st42{filter:url(#Adobe_OpacityMaskFilter_00000008843789798915434590000001614557656999249072_);}
	.st43{fill:url(#SVGID_00000093866994687884707780000014090017352374980012_);}
	.st44{mask:url(#SVGID_00000025440458418202904900000006168512602711970962_);}
	.st45{fill:url(#SVGID_00000178198260853275436850000015122449335527912109_);}
	.st46{fill:url(#SVGID_00000181071300210159068970000004236255981210005390_);}
	.st47{fill:url(#SVGID_00000159459785589994049050000017673903938332967335_);}
	.st48{fill:url(#SVGID_00000109029711008924827270000005862831029523708316_);}
	.st49{fill:url(#SVGID_00000109741404249625831140000014123043802776540292_);}
	.st50{fill:url(#SVGID_00000112599744596120065990000014474099923027564683_);}
</style>
    <g>
	<linearGradient id="SVGID_1_" gradientUnits="userSpaceOnUse" x1="4.294195e-04" y1="566.9296" x2="566.9296"
                    y2="4.365804e-04">
		<stop offset="0" style="stop-color:#000512"/>
        <stop offset="0.3946" style="stop-color:#171B26"/>
        <stop offset="0.4927" style="stop-color:#1E212C"/>
        <stop offset="1" style="stop-color:#35363C"/>
	</linearGradient>
        <rect x="0" y="0" class="st0" width="566.93" height="566.93"/>
        <g>
		<g>
			
				<linearGradient id="SVGID_00000126285627967132562980000014680093394060343707_"
                                gradientUnits="userSpaceOnUse" x1="343.453" y1="384.8969" x2="456.846" y2="384.8969">
				<stop offset="0" style="stop-color:#FEE976"/>
                    <stop offset="0.5" style="stop-color:#ACDFA4"/>
                    <stop offset="1" style="stop-color:#FF6E34"/>
			</linearGradient>
            <polygon style="fill:url(#SVGID_00000126285627967132562980000014680093394060343707_);" points="456.85,417.18 444.01,426.51
				434.2,426.51 378.43,426.51 368.62,426.51 368.62,426.51 365.59,417.18 362.56,407.86 343.45,349.05 351.39,343.28 
				372.37,407.86 375.4,417.18 437.23,417.19 437.23,417.18 447.04,417.18 			"/>

            <linearGradient id="SVGID_00000160912801601184408680000013999535377658010020_"
                            gradientUnits="userSpaceOnUse" x1="332.4921" y1="362.0609" x2="406.3138" y2="362.0609">
				<stop offset="0" style="stop-color:#FF6E34"/>
                <stop offset="0.5" style="stop-color:#ACDFA4"/>
                <stop offset="1" style="stop-color:#FEE976"/>
			</linearGradient>
            <polygon style="fill:url(#SVGID_00000160912801601184408680000013999535377658010020_);" points="406.31,303.38 351.39,343.28
				343.45,349.05 362.56,407.86 365.59,417.18 368.62,426.51 355.79,417.19 355.78,417.18 352.76,407.86 335.52,354.81 
				332.49,345.48 340.43,339.72 348.36,333.96 398.38,297.62 			"/>

            <linearGradient id="SVGID_00000067210448511564948130000008832052909638982051_"
                            gradientUnits="userSpaceOnUse" x1="426.2545" y1="417.1851" x2="426.2545" y2="330.3954">
				<stop offset="0" style="stop-color:#FEE976"/>
                <stop offset="0.5" style="stop-color:#ACDFA4"/>
                <stop offset="1" style="stop-color:#FF6E34"/>
			</linearGradient>
            <polygon style="fill:url(#SVGID_00000067210448511564948130000008832052909638982051_);" points="475.24,330.4 480.14,345.48
				477.11,354.81 459.88,407.86 456.85,417.18 447.04,417.18 437.23,417.18 437.23,417.19 375.4,417.18 372.37,407.86 
				440.26,407.85 450.07,407.86 469.17,349.05 472.21,339.72 			"/>

            <linearGradient id="SVGID_00000143579711201378291440000011178593140001046924_"
                            gradientUnits="userSpaceOnUse" x1="398.3846" y1="346.9708" x2="475.2379" y2="346.9708">
				<stop offset="0" style="stop-color:#FEE976"/>
                <stop offset="0.5" style="stop-color:#ACDFA4"/>
                <stop offset="1" style="stop-color:#FF6E34"/>
			</linearGradient>
            <polygon style="fill:url(#SVGID_00000143579711201378291440000011178593140001046924_);" points="475.23,330.4 475.24,330.4
				472.21,339.72 469.17,349.05 450.07,407.86 440.26,407.85 461.24,343.29 464.27,333.95 414.25,297.61 406.31,291.85 
				398.38,286.09 414.25,286.09 422.18,291.85 467.3,324.63 			"/>

            <linearGradient id="SVGID_00000101060837043554225980000016567661719962867637_"
                            gradientUnits="userSpaceOnUse" x1="332.4921" y1="315.7848" x2="464.2723" y2="315.7848">
				<stop offset="0" style="stop-color:#FF6E34"/>
                <stop offset="0.5" style="stop-color:#ACDFA4"/>
                <stop offset="1" style="stop-color:#FEE976"/>
			</linearGradient>
            <polygon style="fill:url(#SVGID_00000101060837043554225980000016567661719962867637_);" points="464.27,333.95 461.24,343.29
				406.31,303.38 398.38,297.62 348.36,333.96 340.43,339.72 332.49,345.48 337.39,330.4 345.33,324.63 390.45,291.85 
				398.38,286.09 406.31,291.85 414.25,297.61 			"/>
		</g>
            <defs>
			<filter id="Adobe_OpacityMaskFilter" filterUnits="userSpaceOnUse" x="332.49" y="426.51" width="147.65"
                    height="140.42">
				<feColorMatrix type="matrix" values="1 0 0 0 0  0 1 0 0 0  0 0 1 0 0  0 0 0 1 0"/>
			</filter>
		</defs>

            <mask maskUnits="userSpaceOnUse" x="332.49" y="426.51" width="147.65" height="140.42"
                  id="SVGID_00000012450532095864182420000008432719402574316177_">
			<g class="st6">
				
					<linearGradient id="SVGID_00000015335693389057224100000017583617586987538337_"
                                    gradientUnits="userSpaceOnUse" x1="406.3162" y1="580.8006" x2="406.3162"
                                    y2="426.5056">
					<stop offset="0.6923" style="stop-color:#000000"/>
                        <stop offset="0.8456" style="stop-color:#020202"/>
                        <stop offset="0.9009" style="stop-color:#080809"/>
                        <stop offset="0.9402" style="stop-color:#121214"/>
                        <stop offset="0.9718" style="stop-color:#212125"/>
                        <stop offset="0.9988" style="stop-color:#34353B"/>
                        <stop offset="1" style="stop-color:#35363C"/>
				</linearGradient>

                <rect x="329.17" y="426.51"
                      style="fill:url(#SVGID_00000015335693389057224100000017583617586987538337_);" width="154.29"
                      height="154.29"/>
			</g>
		</mask>
            <g style="mask:url(#SVGID_00000012450532095864182420000008432719402574316177_);">
			
				<linearGradient id="SVGID_00000103982665496327716900000009514100316017994639_"
                                gradientUnits="userSpaceOnUse" x1="343.453" y1="336.42" x2="456.846" y2="336.42"
                                gradientTransform="matrix(1 0 0 -1 0 804.539)">
				<stop offset="0" style="stop-color:#FEE976"/>
                    <stop offset="0.5" style="stop-color:#ACDFA4"/>
                    <stop offset="1" style="stop-color:#FF6E34"/>
			</linearGradient>
                <polygon style="fill:url(#SVGID_00000103982665496327716900000009514100316017994639_);" points="456.85,435.84 444.01,426.51
				434.2,426.51 378.43,426.51 368.62,426.51 368.62,426.51 365.59,435.84 362.56,445.16 343.45,503.97 351.39,509.73 
				372.37,445.16 375.4,435.84 437.23,435.83 437.23,435.84 447.04,435.84 			"/>

                <linearGradient id="SVGID_00000121241423599086058200000011306026554645605555_"
                                gradientUnits="userSpaceOnUse" x1="332.4921" y1="313.5839" x2="406.3138" y2="313.5839"
                                gradientTransform="matrix(1 0 0 -1 0 804.539)">
				<stop offset="0" style="stop-color:#FF6E34"/>
                    <stop offset="0.5" style="stop-color:#ACDFA4"/>
                    <stop offset="1" style="stop-color:#FEE976"/>
			</linearGradient>
                <polygon style="fill:url(#SVGID_00000121241423599086058200000011306026554645605555_);" points="406.31,549.64 351.39,509.73
				343.45,503.97 362.56,445.16 365.59,435.84 368.62,426.51 355.79,435.83 355.78,435.84 352.76,445.16 335.52,498.21 
				332.49,507.53 340.43,513.3 348.36,519.06 398.38,555.4 			"/>

                <linearGradient id="SVGID_00000016779051732431193480000009904506565086237868_"
                                gradientUnits="userSpaceOnUse" x1="426.2545" y1="368.7081" x2="426.2545" y2="281.9185"
                                gradientTransform="matrix(1 0 0 -1 0 804.539)">
				<stop offset="0" style="stop-color:#FEE976"/>
                    <stop offset="0.5" style="stop-color:#ACDFA4"/>
                    <stop offset="1" style="stop-color:#FF6E34"/>
			</linearGradient>
                <polygon style="fill:url(#SVGID_00000016779051732431193480000009904506565086237868_);" points="475.24,522.62 480.14,507.53
				477.11,498.2 459.88,445.16 456.85,435.84 447.04,435.84 437.23,435.84 437.23,435.83 375.4,435.84 372.37,445.16 440.26,445.17 
				450.07,445.16 469.17,503.97 472.21,513.3 			"/>

                <linearGradient id="SVGID_00000011730618037789542700000011547201551661099437_"
                                gradientUnits="userSpaceOnUse" x1="398.3846" y1="298.4938" x2="475.2379" y2="298.4938"
                                gradientTransform="matrix(1 0 0 -1 0 804.539)">
				<stop offset="0" style="stop-color:#FEE976"/>
                    <stop offset="0.5" style="stop-color:#ACDFA4"/>
                    <stop offset="1" style="stop-color:#FF6E34"/>
			</linearGradient>
                <polygon style="fill:url(#SVGID_00000011730618037789542700000011547201551661099437_);" points="475.23,522.62 475.24,522.62
				472.21,513.3 469.17,503.97 450.07,445.16 440.26,445.17 461.24,509.73 464.27,519.06 414.25,555.4 406.31,561.17 398.38,566.93 
				414.25,566.93 422.18,561.17 467.3,528.39 			"/>

                <linearGradient id="SVGID_00000057115304526729185520000010731936023296428438_"
                                gradientUnits="userSpaceOnUse" x1="332.4921" y1="267.3078" x2="464.2723" y2="267.3078"
                                gradientTransform="matrix(1 0 0 -1 0 804.539)">
				<stop offset="0" style="stop-color:#FF6E34"/>
                    <stop offset="0.5" style="stop-color:#ACDFA4"/>
                    <stop offset="1" style="stop-color:#FEE976"/>
			</linearGradient>
                <polygon style="fill:url(#SVGID_00000057115304526729185520000010731936023296428438_);" points="464.27,519.06 461.24,509.73
				406.31,549.64 398.38,555.4 348.36,519.06 340.43,513.3 332.49,507.53 337.39,522.62 345.33,528.38 390.45,561.16 398.38,566.93 
				406.31,561.17 414.25,555.4 			"/>
		</g>
	</g>
        <g>
		<g>
			
				<linearGradient id="SVGID_00000170262715298871383520000011476194606478674338_"
                                gradientUnits="userSpaceOnUse" x1="344.7009" y1="188.9884" x2="481.1156" y2="188.9884">
				<stop offset="0" style="stop-color:#8A2AE3"/>
                    <stop offset="0.1005" style="stop-color:#8357B9"/>
                    <stop offset="0.2891" style="stop-color:#77A770"/>
                    <stop offset="0.4232" style="stop-color:#70DA42"/>
                    <stop offset="0.4891" style="stop-color:#6DED30"/>
                    <stop offset="0.803" style="stop-color:#41C3A0"/>
                    <stop offset="1" style="stop-color:#27AAE2"/>
			</linearGradient>
            <polygon style="fill:url(#SVGID_00000170262715298871383520000011476194606478674338_);" points="481.12,148.29 481.12,161.48
				474.52,168.07 419.51,223.09 412.91,229.69 406.32,223.09 399.72,216.5 344.7,161.48 351.3,154.88 406.32,209.9 412.91,216.49 
				467.93,161.48 474.52,154.89 			"/>

            <linearGradient id="SVGID_00000158013983890993787980000000134436933936168871_"
                            gradientUnits="userSpaceOnUse" x1="372.2137" y1="229.6853" x2="372.2137" y2="93.2706">
				<stop offset="0" style="stop-color:#27AAE2"/>
                <stop offset="0.197" style="stop-color:#41C3A0"/>
                <stop offset="0.5109" style="stop-color:#6DED30"/>
                <stop offset="0.5768" style="stop-color:#70DA42"/>
                <stop offset="0.7109" style="stop-color:#77A770"/>
                <stop offset="0.8995" style="stop-color:#8357B9"/>
                <stop offset="1" style="stop-color:#8A2AE3"/>
			</linearGradient>
            <polygon style="fill:url(#SVGID_00000158013983890993787980000000134436933936168871_);" points="412.91,229.69 399.72,229.69
				393.13,223.09 338.11,168.07 331.52,161.48 338.11,154.89 344.71,148.29 399.72,93.27 406.32,99.86 351.3,154.88 344.7,161.48 
				399.72,216.5 406.32,223.09 			"/>

            <linearGradient id="SVGID_00000067212014539834048850000008613360927791571363_"
                            gradientUnits="userSpaceOnUse" x1="399.7218" y1="148.2891" x2="481.1156" y2="148.2891">
				<stop offset="0" style="stop-color:#27AAE2"/>
                <stop offset="0.197" style="stop-color:#41C3A0"/>
                <stop offset="0.5109" style="stop-color:#6DED30"/>
                <stop offset="0.5768" style="stop-color:#70DA42"/>
                <stop offset="0.7109" style="stop-color:#77A770"/>
                <stop offset="0.8995" style="stop-color:#8357B9"/>
                <stop offset="1" style="stop-color:#8A2AE3"/>
			</linearGradient>
            <polygon style="fill:url(#SVGID_00000067212014539834048850000008613360927791571363_);" points="481.12,148.29 474.52,154.89
				467.93,161.48 412.91,216.49 406.32,209.9 461.33,154.89 467.93,148.29 412.91,93.27 406.32,86.68 399.72,80.09 412.91,80.09 
				419.5,86.68 474.52,141.7 			"/>

            <linearGradient id="SVGID_00000147195806376844486750000002516980672817513635_"
                            gradientUnits="userSpaceOnUse" x1="331.5168" y1="120.7834" x2="467.9267" y2="120.7834">
				<stop offset="0" style="stop-color:#27AAE2"/>
                <stop offset="0.197" style="stop-color:#41C3A0"/>
                <stop offset="0.5109" style="stop-color:#6DED30"/>
                <stop offset="0.5768" style="stop-color:#70DA42"/>
                <stop offset="0.7109" style="stop-color:#77A770"/>
                <stop offset="0.8995" style="stop-color:#8357B9"/>
                <stop offset="1" style="stop-color:#8A2AE3"/>
			</linearGradient>
            <polygon style="fill:url(#SVGID_00000147195806376844486750000002516980672817513635_);" points="412.91,93.27 467.93,148.29
				461.33,154.89 406.32,99.86 399.72,93.27 344.71,148.29 338.11,154.89 331.52,161.48 331.52,148.29 338.11,141.69 393.13,86.68 
				399.72,80.09 406.32,86.68 			"/>
		</g>
            <defs>
			
				<filter id="Adobe_OpacityMaskFilter_00000156566661218995860180000018382445274599675291_"
                        filterUnits="userSpaceOnUse" x="331.52" y="229.69" width="149.6" height="149.6">
				<feColorMatrix type="matrix" values="1 0 0 0 0  0 1 0 0 0  0 0 1 0 0  0 0 0 1 0"/>
			</filter>
		</defs>

            <mask maskUnits="userSpaceOnUse" x="331.52" y="229.69" width="149.6" height="149.6"
                  id="SVGID_00000173844268754588628550000006448107897762286500_">
			<g style="filter:url(#Adobe_OpacityMaskFilter_00000156566661218995860180000018382445274599675291_);">
				
					<linearGradient id="SVGID_00000051374773681969181240000016139967273046244239_"
                                    gradientUnits="userSpaceOnUse" x1="406.3162" y1="383.9802" x2="406.3162"
                                    y2="229.6853">
					<stop offset="0.6044" style="stop-color:#000000"/>
                        <stop offset="0.8015" style="stop-color:#020202"/>
                        <stop offset="0.8725" style="stop-color:#080809"/>
                        <stop offset="0.9232" style="stop-color:#121214"/>
                        <stop offset="0.9638" style="stop-color:#212125"/>
                        <stop offset="0.9985" style="stop-color:#34353B"/>
                        <stop offset="1" style="stop-color:#35363C"/>
				</linearGradient>

                <rect x="329.17" y="229.69"
                      style="fill:url(#SVGID_00000051374773681969181240000016139967273046244239_);" width="154.29"
                      height="154.29"/>
			</g>
		</mask>
            <g style="mask:url(#SVGID_00000173844268754588628550000006448107897762286500_);">
			
				<linearGradient id="SVGID_00000123434259064916142630000008216031818700956041_"
                                gradientUnits="userSpaceOnUse" x1="344.7009" y1="534.1568" x2="481.1156" y2="534.1568"
                                gradientTransform="matrix(1 0 0 -1 0 804.539)">
				<stop offset="0" style="stop-color:#8A2AE3"/>
                    <stop offset="0.1005" style="stop-color:#8357B9"/>
                    <stop offset="0.2891" style="stop-color:#77A770"/>
                    <stop offset="0.4232" style="stop-color:#70DA42"/>
                    <stop offset="0.4891" style="stop-color:#6DED30"/>
                    <stop offset="0.803" style="stop-color:#41C3A0"/>
                    <stop offset="1" style="stop-color:#27AAE2"/>
			</linearGradient>
                <polygon style="fill:url(#SVGID_00000123434259064916142630000008216031818700956041_);" points="481.12,311.08 481.12,297.89
				474.52,291.3 419.51,236.28 412.91,229.69 406.32,236.28 399.72,242.87 344.7,297.89 351.3,304.49 406.32,249.47 412.91,242.88 
				467.93,297.89 474.52,304.48 			"/>

                <linearGradient id="SVGID_00000090263577270870106790000012716832333397219732_"
                                gradientUnits="userSpaceOnUse" x1="372.2137" y1="574.8537" x2="372.2137" y2="438.4391"
                                gradientTransform="matrix(1 0 0 -1 0 804.539)">
				<stop offset="0" style="stop-color:#27AAE2"/>
                    <stop offset="0.197" style="stop-color:#41C3A0"/>
                    <stop offset="0.5109" style="stop-color:#6DED30"/>
                    <stop offset="0.5768" style="stop-color:#70DA42"/>
                    <stop offset="0.7109" style="stop-color:#77A770"/>
                    <stop offset="0.8995" style="stop-color:#8357B9"/>
                    <stop offset="1" style="stop-color:#8A2AE3"/>
			</linearGradient>
                <polygon style="fill:url(#SVGID_00000090263577270870106790000012716832333397219732_);" points="412.91,229.69 399.72,229.69
				393.13,236.28 338.11,291.3 331.52,297.89 338.11,304.48 344.71,311.08 399.72,366.1 406.32,359.51 351.3,304.49 344.7,297.89 
				399.72,242.87 406.32,236.28 			"/>

                <linearGradient id="SVGID_00000083774931614932416530000015021596682008656570_"
                                gradientUnits="userSpaceOnUse" x1="399.7218" y1="493.4576" x2="481.1156" y2="493.4576"
                                gradientTransform="matrix(1 0 0 -1 0 804.539)">
				<stop offset="0" style="stop-color:#27AAE2"/>
                    <stop offset="0.197" style="stop-color:#41C3A0"/>
                    <stop offset="0.5109" style="stop-color:#6DED30"/>
                    <stop offset="0.5768" style="stop-color:#70DA42"/>
                    <stop offset="0.7109" style="stop-color:#77A770"/>
                    <stop offset="0.8995" style="stop-color:#8357B9"/>
                    <stop offset="1" style="stop-color:#8A2AE3"/>
			</linearGradient>
                <polygon style="fill:url(#SVGID_00000083774931614932416530000015021596682008656570_);" points="481.12,311.08 474.52,304.48
				467.93,297.89 412.91,242.88 406.32,249.47 461.33,304.48 467.93,311.08 412.91,366.1 406.32,372.69 399.72,379.28 
				412.91,379.28 419.5,372.69 474.52,317.67 			"/>

                <linearGradient id="SVGID_00000166643778388941182840000018264093833907984297_"
                                gradientUnits="userSpaceOnUse" x1="331.5168" y1="465.9519" x2="467.9267" y2="465.9519"
                                gradientTransform="matrix(1 0 0 -1 0 804.539)">
				<stop offset="0" style="stop-color:#27AAE2"/>
                    <stop offset="0.197" style="stop-color:#41C3A0"/>
                    <stop offset="0.5109" style="stop-color:#6DED30"/>
                    <stop offset="0.5768" style="stop-color:#70DA42"/>
                    <stop offset="0.7109" style="stop-color:#77A770"/>
                    <stop offset="0.8995" style="stop-color:#8357B9"/>
                    <stop offset="1" style="stop-color:#8A2AE3"/>
			</linearGradient>
                <polygon style="fill:url(#SVGID_00000166643778388941182840000018264093833907984297_);" points="412.91,366.1 467.93,311.08
				461.33,304.48 406.32,359.51 399.72,366.1 344.71,311.08 338.11,304.48 331.52,297.89 331.52,311.08 338.11,317.68 
				393.13,372.69 399.72,379.28 406.32,372.69 			"/>
		</g>
	</g>
        <g>
		<g>
			
				<linearGradient id="SVGID_00000135659357269981075850000005808662931205606300_"
                                gradientUnits="userSpaceOnUse" x1="608.3481" y1="141.7118" x2="727.0566" y2="141.7118"
                                gradientTransform="matrix(-1 0 0 -1 812.4206 312.045)">
				<stop offset="0" style="stop-color:#C122BD"/>
                    <stop offset="0.2164" style="stop-color:#CD3093"/>
                    <stop offset="0.5146" style="stop-color:#DE4653"/>
                    <stop offset="1" style="stop-color:#D16DFF"/>
			</linearGradient>
            <polygon style="fill:url(#SVGID_00000135659357269981075850000005808662931205606300_);" points="212.11,110.98 206.73,120.31
				112.73,120.31 101.97,120.31 154.35,211.03 159.73,220.36 159.73,220.36 165.12,229.69 154.35,229.69 148.96,220.36 91.2,120.31 
				85.81,110.98 96.58,110.98 107.35,110.98 			"/>

            <linearGradient id="SVGID_00000154401320993930343510000014458729112536162477_"
                            gradientUnits="userSpaceOnUse" x1="578.77" y1="146.3745" x2="710.4515" y2="146.3745"
                            gradientTransform="matrix(-1 0 0 -1 812.4206 312.045)">
				<stop offset="0" style="stop-color:#EE177C"/>
                <stop offset="0.6104" style="stop-color:#F9609F"/>
                <stop offset="1" style="stop-color:#FF8AB3"/>
			</linearGradient>
            <polygon style="fill:url(#SVGID_00000154401320993930343510000014458729112536162477_);" points="228.26,101.66 233.65,110.98
				228.27,120.31 170.5,220.36 165.12,229.69 159.73,220.36 159.73,220.36 154.35,211.03 101.97,120.31 112.73,120.31 
				159.73,201.71 165.12,211.03 217.5,120.31 222.88,110.98 			"/>

            <linearGradient id="SVGID_00000096056153821866331700000000787125095298562735_"
                            gradientUnits="userSpaceOnUse" x1="644.6108" y1="210.3892" x2="644.6108" y2="82.3597"
                            gradientTransform="matrix(-1 0 0 -1 812.4206 312.045)">
				<stop offset="0" style="stop-color:#C122BD"/>
                <stop offset="0.2164" style="stop-color:#CD3093"/>
                <stop offset="0.5146" style="stop-color:#DE4653"/>
                <stop offset="1" style="stop-color:#D16DFF"/>
			</linearGradient>
            <polygon style="fill:url(#SVGID_00000096056153821866331700000000787125095298562735_);" points="228.26,101.66 233.65,110.98
				228.27,120.31 170.5,220.36 165.12,229.69 159.73,220.36 159.73,220.36 154.35,211.03 101.97,120.31 112.73,120.31 
				159.73,201.71 165.12,211.03 217.5,120.31 222.88,110.98 			"/>

            <linearGradient id="SVGID_00000150785300907569908000000001654049813480178058_"
                            gradientUnits="userSpaceOnUse" x1="602.3046" y1="237.657" x2="711.275" y2="128.6866"
                            gradientTransform="matrix(-1 0 0 -1 812.4206 312.045)">
				<stop offset="0" style="stop-color:#DE4653"/>
                <stop offset="0.041" style="stop-color:#DD4962"/>
                <stop offset="0.3383" style="stop-color:#D561CC"/>
                <stop offset="0.4708" style="stop-color:#D26BF6"/>
                <stop offset="1" style="stop-color:#C122BD"/>
			</linearGradient>
            <polygon style="fill:url(#SVGID_00000150785300907569908000000001654049813480178058_);" points="228.26,101.66 222.88,110.98
				217.5,120.31 165.12,211.03 159.73,201.71 206.73,120.31 212.11,110.98 107.35,110.98 96.58,110.98 85.81,110.98 91.2,101.66 
				101.97,101.66 217.5,101.66 			"/>
		</g>
            <defs>
			
				<filter id="Adobe_OpacityMaskFilter_00000174584738552966891000000015227588048106292413_"
                        filterUnits="userSpaceOnUse" x="85.81" y="229.69" width="147.84" height="128.03">
				<feColorMatrix type="matrix" values="1 0 0 0 0  0 1 0 0 0  0 0 1 0 0  0 0 0 1 0"/>
			</filter>
		</defs>

            <mask maskUnits="userSpaceOnUse" x="85.81" y="229.69" width="147.84" height="128.03"
                  id="SVGID_00000163041638145015127930000008823477197176673207_">
			<g style="filter:url(#Adobe_OpacityMaskFilter_00000174584738552966891000000015227588048106292413_);">
				
					<linearGradient id="SVGID_00000021800431801993935980000016746186057316495259_"
                                    gradientUnits="userSpaceOnUse" x1="159.7325" y1="383.9802" x2="159.7325"
                                    y2="229.6853">
					<stop offset="0.5055" style="stop-color:#000000"/>
                        <stop offset="0.7519" style="stop-color:#020202"/>
                        <stop offset="0.8407" style="stop-color:#080809"/>
                        <stop offset="0.9039" style="stop-color:#121214"/>
                        <stop offset="0.9548" style="stop-color:#212125"/>
                        <stop offset="0.9981" style="stop-color:#34353B"/>
                        <stop offset="1" style="stop-color:#35363C"/>
				</linearGradient>

                <rect x="82.59" y="229.69" style="fill:url(#SVGID_00000021800431801993935980000016746186057316495259_);"
                      width="154.29" height="154.29"/>
			</g>
		</mask>
            <g style="mask:url(#SVGID_00000163041638145015127930000008823477197176673207_);">
			
				<linearGradient id="SVGID_00000016754276765138276210000003049782965106637217_"
                                gradientUnits="userSpaceOnUse" x1="608.3481" y1="289.0374" x2="727.0566" y2="289.0374"
                                gradientTransform="matrix(-1 0 0 1 812.4206 0)">
				<stop offset="0" style="stop-color:#C122BD"/>
                    <stop offset="0.2164" style="stop-color:#CD3093"/>
                    <stop offset="0.5146" style="stop-color:#DE4653"/>
                    <stop offset="1" style="stop-color:#D16DFF"/>
			</linearGradient>
                <polygon style="fill:url(#SVGID_00000016754276765138276210000003049782965106637217_);" points="212.11,348.39 206.73,339.06
				112.73,339.06 101.97,339.06 154.35,248.34 159.73,239.02 159.73,239.01 165.12,229.69 154.35,229.69 148.96,239.01 91.2,339.06 
				85.81,348.39 96.58,348.39 107.35,348.39 			"/>

                <linearGradient id="SVGID_00000123431009518902808260000008538440597015799206_"
                                gradientUnits="userSpaceOnUse" x1="578.77" y1="293.7" x2="710.4515" y2="293.7"
                                gradientTransform="matrix(-1 0 0 1 812.4206 0)">
				<stop offset="0" style="stop-color:#EE177C"/>
                    <stop offset="0.6104" style="stop-color:#F9609F"/>
                    <stop offset="1" style="stop-color:#FF8AB3"/>
			</linearGradient>
                <polygon style="fill:url(#SVGID_00000123431009518902808260000008538440597015799206_);" points="228.26,357.71 233.65,348.39
				228.27,339.06 170.5,239.01 165.12,229.69 159.73,239.01 159.73,239.02 154.35,248.34 101.97,339.06 112.73,339.06 
				159.73,257.66 165.12,248.34 217.5,339.06 222.88,348.39 			"/>

                <linearGradient id="SVGID_00000174575148843565916460000007814407123222153102_"
                                gradientUnits="userSpaceOnUse" x1="644.6108" y1="357.7147" x2="644.6108" y2="229.6853"
                                gradientTransform="matrix(-1 0 0 1 812.4206 0)">
				<stop offset="0" style="stop-color:#C122BD"/>
                    <stop offset="0.2164" style="stop-color:#CD3093"/>
                    <stop offset="0.5146" style="stop-color:#DE4653"/>
                    <stop offset="1" style="stop-color:#D16DFF"/>
			</linearGradient>
                <polygon style="fill:url(#SVGID_00000174575148843565916460000007814407123222153102_);" points="228.26,357.71 233.65,348.39
				228.27,339.06 170.5,239.01 165.12,229.69 159.73,239.01 159.73,239.02 154.35,248.34 101.97,339.06 112.73,339.06 
				159.73,257.66 165.12,248.34 217.5,339.06 222.88,348.39 			"/>

                <linearGradient id="SVGID_00000144326167988885841100000001451607669611734680_"
                                gradientUnits="userSpaceOnUse" x1="602.3046" y1="384.9825" x2="711.275" y2="276.0121"
                                gradientTransform="matrix(-1 0 0 1 812.4206 0)">
				<stop offset="0" style="stop-color:#DE4653"/>
                    <stop offset="0.041" style="stop-color:#DD4962"/>
                    <stop offset="0.3383" style="stop-color:#D561CC"/>
                    <stop offset="0.4708" style="stop-color:#D26BF6"/>
                    <stop offset="1" style="stop-color:#C122BD"/>
			</linearGradient>
                <polygon style="fill:url(#SVGID_00000144326167988885841100000001451607669611734680_);" points="228.26,357.71 222.88,348.39
				217.5,339.06 165.12,248.34 159.73,257.66 206.73,339.06 212.11,348.39 107.35,348.39 96.58,348.39 85.81,348.39 91.2,357.71 
				101.97,357.71 217.5,357.71 			"/>
		</g>
	</g>
        <g>
		<g>
			
				<linearGradient id="SVGID_00000119838996042536039870000001956211100320820891_"
                                gradientUnits="userSpaceOnUse" x1="115.2238" y1="410.9033" x2="222.8965" y2="410.9033">
				<stop offset="0" style="stop-color:#62E7FA"/>
                    <stop offset="0.1605" style="stop-color:#8CD3DD"/>
                    <stop offset="0.5146" style="stop-color:#F4A096"/>
                    <stop offset="1" style="stop-color:#6E73FF"/>
			</linearGradient>
            <polygon style="fill:url(#SVGID_00000119838996042536039870000001956211100320820891_);" points="222.9,389.98 213.57,406.13
				204.24,411.52 178.39,426.44 169.06,431.83 159.73,426.44 150.41,421.06 115.22,400.75 115.23,389.98 159.73,415.68 
				169.06,421.06 204.24,400.75 213.57,395.36 			"/>

            <linearGradient id="SVGID_00000012444947055903580170000016277478924803269760_"
                            gradientUnits="userSpaceOnUse" x1="112.5751" y1="412.8069" x2="151.0089" y2="374.373">
				<stop offset="0" style="stop-color:#62E7FA"/>
                <stop offset="0.4672" style="stop-color:#6E73FF"/>
                <stop offset="0.6471" style="stop-color:#9881DE"/>
                <stop offset="1" style="stop-color:#F4A096"/>
			</linearGradient>
            <polygon style="fill:url(#SVGID_00000012444947055903580170000016277478924803269760_);" points="169.06,431.83 150.4,431.83
				141.08,426.44 115.22,411.52 105.9,406.13 105.9,395.36 105.9,384.6 105.9,343.97 115.22,338.59 115.23,389.98 115.22,400.75 
				150.41,421.06 159.73,426.44 			"/>

            <linearGradient id="SVGID_00000013876205968609537130000015765303575092362431_"
                            gradientUnits="userSpaceOnUse" x1="96.5686" y1="356.8201" x2="159.7349" y2="356.8201">
				<stop offset="0" style="stop-color:#62E7FA"/>
                <stop offset="0.1605" style="stop-color:#8CD3DD"/>
                <stop offset="0.5146" style="stop-color:#F4A096"/>
                <stop offset="1" style="stop-color:#6E73FF"/>
			</linearGradient>
            <polygon style="fill:url(#SVGID_00000013876205968609537130000015765303575092362431_);" points="159.73,312.89 115.22,338.59
				105.9,343.97 105.9,384.6 105.9,395.36 105.9,406.13 96.57,389.98 96.57,379.21 96.57,349.36 96.57,338.59 105.9,333.2 
				115.23,327.82 150.4,307.51 			"/>

            <linearGradient id="SVGID_00000176749845881970685460000016301252510261870228_"
                            gradientUnits="userSpaceOnUse" x1="159.7302" y1="371.7456" x2="222.8965" y2="371.7456">
				<stop offset="0" style="stop-color:#62E7FA"/>
                <stop offset="0.1605" style="stop-color:#8CD3DD"/>
                <stop offset="0.5146" style="stop-color:#F4A096"/>
                <stop offset="1" style="stop-color:#6E73FF"/>
			</linearGradient>
            <polygon style="fill:url(#SVGID_00000176749845881970685460000016301252510261870228_);" points="222.9,338.58 222.9,349.36
				222.89,379.21 222.9,389.98 213.57,395.36 204.24,400.75 169.06,421.06 159.73,415.68 204.24,389.98 213.57,384.59 
				213.57,343.97 213.57,333.2 213.57,322.43 			"/>

            <linearGradient id="SVGID_00000137097160546686214590000006980128363554452659_"
                            gradientUnits="userSpaceOnUse" x1="181.9881" y1="389.9802" x2="181.9881" y2="296.7324">
				<stop offset="0" style="stop-color:#F4A096"/>
                <stop offset="0.3529" style="stop-color:#9881DE"/>
                <stop offset="0.5328" style="stop-color:#6E73FF"/>
                <stop offset="1" style="stop-color:#62E7FA"/>
			</linearGradient>
            <polygon style="fill:url(#SVGID_00000137097160546686214590000006980128363554452659_);" points="169.06,296.73 178.39,302.12
				204.24,317.05 213.57,322.43 213.57,333.2 213.57,343.97 213.57,384.59 204.24,389.98 204.24,338.59 204.24,327.82 
				169.06,307.51 159.73,302.12 150.4,296.74 169.05,296.74 			"/>

            <linearGradient id="SVGID_00000106136005202201218980000013860347530684651445_"
                            gradientUnits="userSpaceOnUse" x1="96.5686" y1="317.6625" x2="204.2366" y2="317.6625">
				<stop offset="0" style="stop-color:#6E73FF"/>
                <stop offset="0.4854" style="stop-color:#F4A096"/>
                <stop offset="0.8395" style="stop-color:#8CD3DD"/>
                <stop offset="1" style="stop-color:#62E7FA"/>
			</linearGradient>
            <polygon style="fill:url(#SVGID_00000106136005202201218980000013860347530684651445_);" points="204.24,327.82 204.24,338.59
				159.73,312.89 150.4,307.51 115.23,327.82 105.9,333.2 96.57,338.59 105.9,322.43 115.22,317.05 141.08,302.12 150.4,296.74 
				159.73,302.12 169.06,307.51 			"/>
		</g>
            <defs>
			
				<filter id="Adobe_OpacityMaskFilter_00000065042727669643853590000004127944636157321130_"
                        filterUnits="userSpaceOnUse" x="96.57" y="431.83" width="126.33" height="135.1">
				<feColorMatrix type="matrix" values="1 0 0 0 0  0 1 0 0 0  0 0 1 0 0  0 0 0 1 0"/>
			</filter>
		</defs>

            <mask maskUnits="userSpaceOnUse" x="96.57" y="431.83" width="126.33" height="135.1"
                  id="SVGID_00000100365343786932720920000008587471532198570629_">
			<g style="filter:url(#Adobe_OpacityMaskFilter_00000065042727669643853590000004127944636157321130_);">
				
					<linearGradient id="SVGID_00000099653084244266226520000000006164885563964288_"
                                    gradientUnits="userSpaceOnUse" x1="159.7325" y1="586.126" x2="159.7325"
                                    y2="431.831">
					<stop offset="0.6557" style="stop-color:#000000"/>
                        <stop offset="0.8273" style="stop-color:#020202"/>
                        <stop offset="0.8891" style="stop-color:#080809"/>
                        <stop offset="0.9331" style="stop-color:#121214"/>
                        <stop offset="0.9685" style="stop-color:#212125"/>
                        <stop offset="0.9987" style="stop-color:#34353B"/>
                        <stop offset="1" style="stop-color:#35363C"/>
				</linearGradient>

                <rect x="82.59" y="431.83" style="fill:url(#SVGID_00000099653084244266226520000000006164885563964288_);"
                      width="154.29" height="154.29"/>
			</g>
		</mask>
            <g style="mask:url(#SVGID_00000100365343786932720920000008587471532198570629_);">
			
				<linearGradient id="SVGID_00000143577985425502382170000008833854707362763924_"
                                gradientUnits="userSpaceOnUse" x1="115.2238" y1="-140.7137" x2="222.8965" y2="-140.7137"
                                gradientTransform="matrix(1 0 0 -1 0 312.045)">
				<stop offset="0" style="stop-color:#62E7FA"/>
                    <stop offset="0.1605" style="stop-color:#8CD3DD"/>
                    <stop offset="0.5146" style="stop-color:#F4A096"/>
                    <stop offset="1" style="stop-color:#6E73FF"/>
			</linearGradient>
                <polygon style="fill:url(#SVGID_00000143577985425502382170000008833854707362763924_);" points="222.9,473.69 213.57,457.53
				204.24,452.14 178.39,437.22 169.06,431.83 159.73,437.22 150.41,442.6 115.22,462.91 115.23,473.68 159.73,447.99 169.06,442.6 
				204.24,462.91 213.57,468.3 			"/>

                <linearGradient id="SVGID_00000109741304939774986940000003043739496299632551_"
                                gradientUnits="userSpaceOnUse" x1="112.5751" y1="-138.8102" x2="151.0089" y2="-177.244"
                                gradientTransform="matrix(1 0 0 -1 0 312.045)">
				<stop offset="0" style="stop-color:#62E7FA"/>
                    <stop offset="0.4672" style="stop-color:#6E73FF"/>
                    <stop offset="0.6471" style="stop-color:#9881DE"/>
                    <stop offset="1" style="stop-color:#F4A096"/>
			</linearGradient>
                <polygon style="fill:url(#SVGID_00000109741304939774986940000003043739496299632551_);" points="169.06,431.83 150.4,431.83
				141.08,437.22 115.22,452.14 105.9,457.53 105.9,468.3 105.9,479.06 105.9,519.69 115.22,525.07 115.23,473.68 115.22,462.91 
				150.41,442.6 159.73,437.22 			"/>

                <linearGradient id="SVGID_00000066478576409502284070000012874923729258960563_"
                                gradientUnits="userSpaceOnUse" x1="96.5686" y1="-194.7969" x2="159.7349" y2="-194.7969"
                                gradientTransform="matrix(1 0 0 -1 0 312.045)">
				<stop offset="0" style="stop-color:#62E7FA"/>
                    <stop offset="0.1605" style="stop-color:#8CD3DD"/>
                    <stop offset="0.5146" style="stop-color:#F4A096"/>
                    <stop offset="1" style="stop-color:#6E73FF"/>
			</linearGradient>
                <polygon style="fill:url(#SVGID_00000066478576409502284070000012874923729258960563_);" points="159.73,550.77 115.22,525.07
				105.9,519.69 105.9,479.06 105.9,468.3 105.9,457.53 96.57,473.69 96.57,484.45 96.57,514.3 96.57,525.07 105.9,530.46 
				115.23,535.85 150.4,556.16 			"/>

                <linearGradient id="SVGID_00000132070159625703231590000016887547121825889971_"
                                gradientUnits="userSpaceOnUse" x1="159.7302" y1="-179.8713" x2="222.8965" y2="-179.8713"
                                gradientTransform="matrix(1 0 0 -1 0 312.045)">
				<stop offset="0" style="stop-color:#62E7FA"/>
                    <stop offset="0.1605" style="stop-color:#8CD3DD"/>
                    <stop offset="0.5146" style="stop-color:#F4A096"/>
                    <stop offset="1" style="stop-color:#6E73FF"/>
			</linearGradient>
                <polygon style="fill:url(#SVGID_00000132070159625703231590000016887547121825889971_);" points="222.9,525.08 222.9,514.3
				222.89,484.45 222.9,473.69 213.57,468.3 204.24,462.91 169.06,442.6 159.73,447.99 204.24,473.68 213.57,479.07 213.57,519.69 
				213.57,530.46 213.57,541.23 			"/>

                <linearGradient id="SVGID_00000028313452044734107540000012847263640264746675_"
                                gradientUnits="userSpaceOnUse" x1="181.9881" y1="-161.6368" x2="181.9881" y2="-254.8846"
                                gradientTransform="matrix(1 0 0 -1 0 312.045)">
				<stop offset="0" style="stop-color:#F4A096"/>
                    <stop offset="0.3529" style="stop-color:#9881DE"/>
                    <stop offset="0.5328" style="stop-color:#6E73FF"/>
                    <stop offset="1" style="stop-color:#62E7FA"/>
			</linearGradient>
                <polygon style="fill:url(#SVGID_00000028313452044734107540000012847263640264746675_);" points="169.06,566.93 178.39,561.54
				204.24,546.62 213.57,541.23 213.57,530.46 213.57,519.69 213.57,479.07 204.24,473.68 204.24,525.07 204.24,535.85 
				169.06,556.16 159.73,561.54 150.4,566.92 169.05,566.92 			"/>

                <linearGradient id="SVGID_00000144339435668731940000000006317038321795120053_"
                                gradientUnits="userSpaceOnUse" x1="96.5686" y1="-233.9545" x2="204.2366" y2="-233.9545"
                                gradientTransform="matrix(1 0 0 -1 0 312.045)">
				<stop offset="0" style="stop-color:#6E73FF"/>
                    <stop offset="0.4854" style="stop-color:#F4A096"/>
                    <stop offset="0.8395" style="stop-color:#8CD3DD"/>
                    <stop offset="1" style="stop-color:#62E7FA"/>
			</linearGradient>
                <polygon style="fill:url(#SVGID_00000144339435668731940000000006317038321795120053_);" points="204.24,535.85 204.24,525.07
				159.73,550.77 150.4,556.16 115.23,535.85 105.9,530.46 96.57,525.07 105.9,541.23 115.22,546.62 141.08,561.54 150.4,566.92 
				159.73,561.54 169.06,556.16 			"/>
		</g>
	</g>
</g>
</svg>
